HIERARCHY
ROOT Hips
{
	OFFSET	0.00	0.00	0.00
	CHANNELS 6 Xposition Yposition Zposition Zrotation Xrotation Yrotation
	JOINT LeftUpLeg
	{
		OFFSET	 0.126116	-0.014019	-0.065224
		CHANNELS 3 Zrotation Xrotation Yrotation
		JOINT LeftLeg
		{
			OFFSET	 0.000000	 0.000000	 0.569914
			CHANNELS 3 Zrotation Xrotation Yrotation
			JOINT LeftFoot
			{
				OFFSET	 0.000000	 0.000000	 0.544423
				CHANNELS 3 Zrotation Xrotation Yrotation
				JOINT LeftToeBase
				{
					OFFSET	 0.000000	 0.000000	 0.207117
					CHANNELS 3 Zrotation Xrotation Yrotation
					End Site
					{
						OFFSET	 0.000000	 0.000000	 0.207117
					}
				}
			}
		}
	}
	JOINT RightUpLeg
	{
		OFFSET	-0.124023	-0.008373	-0.065224
		CHANNELS 3 Zrotation Xrotation Yrotation
		JOINT RightLeg
		{
			OFFSET	 0.000000	 0.000000	 0.570047
			CHANNELS 3 Zrotation Xrotation Yrotation
			JOINT RightFoot
			{
				OFFSET	 0.000000	 0.000000	 0.544354
				CHANNELS 3 Zrotation Xrotation Yrotation
				JOINT RightToeBase
				{
					OFFSET	 0.000000	 0.000000	 0.207540
					CHANNELS 3 Zrotation Xrotation Yrotation
					End Site
					{
						OFFSET	 0.000000	 0.000000	 0.207540
					}
				}
			}
		}
	}
	JOINT Spine
	{
		OFFSET	 0.000184	-0.007763	 0.117403
		CHANNELS 3 Zrotation Xrotation Yrotation
		JOINT Spine1
		{
			OFFSET	 0.000000	 0.000000	 0.137269
			CHANNELS 3 Zrotation Xrotation Yrotation
			JOINT Spine2
			{
				OFFSET	 0.000000	 0.000000	 0.156879
				CHANNELS 3 Zrotation Xrotation Yrotation
				JOINT LeftShoulder
				{
					OFFSET	 0.080501	-0.002496	 0.160144
					CHANNELS 3 Zrotation Xrotation Yrotation
					JOINT LeftArm
					{
						OFFSET	 0.000000	 0.000000	 0.164363
						CHANNELS 3 Zrotation Xrotation Yrotation
						JOINT LeftForeArm
						{
							OFFSET	 0.000000	 0.000000	 0.364576
							CHANNELS 3 Zrotation Xrotation Yrotation
							JOINT LeftHand
							{
								OFFSET	 0.000000	 0.000000	 0.360812
								CHANNELS 3 Zrotation Xrotation Yrotation
								JOINT LeftHandIndex1
								{
									OFFSET	 0.000000	 0.000000	 0.086006
									CHANNELS 3 Zrotation Xrotation Yrotation
									JOINT LeftHandIndex2
									{
										OFFSET	 0.000000	 0.000000	 0.047236
										CHANNELS 3 Zrotation Xrotation Yrotation
										JOINT LeftHandIndex3
										{
											OFFSET	-0.004284	-0.000551	 0.038166
											CHANNELS 3 Zrotation Xrotation Yrotation
											End Site
											{
												OFFSET	-0.004284	-0.000551	 0.038166
											}
										}
									}
								}
							}
						}
					}
				}
				JOINT Neck
				{
					OFFSET	 0.000000	 0.000000	 0.176489
					CHANNELS 3 Zrotation Xrotation Yrotation
					JOINT Head
					{
						OFFSET	 0.000000	-0.001747	 0.077940
						CHANNELS 3 Zrotation Xrotation Yrotation
						End Site
						{
							OFFSET	 0.000000	-0.001747	 0.077940
						}
					}
				}
				JOINT RightShoulder
				{
					OFFSET	-0.080363	 0.000306	 0.159706
					CHANNELS 3 Zrotation Xrotation Yrotation
					JOINT RightArm
					{
						OFFSET	 0.000000	 0.000000	 0.164196
						CHANNELS 3 Zrotation Xrotation Yrotation
						JOINT RightForeArm
						{
							OFFSET	 0.000000	 0.000000	 0.365611
							CHANNELS 3 Zrotation Xrotation Yrotation
							JOINT RightHand
							{
								OFFSET	 0.000000	 0.000000	 0.360648
								CHANNELS 3 Zrotation Xrotation Yrotation
								JOINT RightHandIndex1
								{
									OFFSET	 0.000000	 0.000000	 0.069977
									CHANNELS 3 Zrotation Xrotation Yrotation
									JOINT RightHandIndex2
									{
										OFFSET	 0.000000	 0.000000	 0.052305
										CHANNELS 3 Zrotation Xrotation Yrotation
										JOINT RightHandIndex3
										{
											OFFSET	 0.009002	-0.000782	 0.042196
											CHANNELS 3 Zrotation Xrotation Yrotation
											End Site
											{
												OFFSET	 0.009002	-0.000782	 0.042196
											}
										}
									}
								}
							}
						}
					}
				}
			}
		}
	}
}
MOTION
Frames:    8
Frame Time: 0.03333334
-0.001015	 0.071856	 1.213991	-0.000005	-0.000008	-0.000005	 4.117190	-1.743456	 179.873500	 3.144682	-11.594540	 1.749894	 4.431011	 71.402240	 1.145402	-2.385833	 28.452760	 0.000004	-4.119452	-2.154259	-179.893100	-3.138409	-11.963990	-1.790670	-4.423576	 71.426400	-1.178366	 2.384659	 28.388700	-0.000001	 7.103217	 2.964112	 0.140729	 11.836540	-1.296832	 0.919215	 14.206920	-1.531870	 1.134142	-91.776180	 78.527400	-180.000000	 12.108080	-5.220968	-1.016091	-4.393931	-0.888969	-0.368824	-19.487080	-18.143750	-4.281792	-3.812334	 37.924440	-2.927599	-2.450526	 36.184240	 0.754587	-1.378229	 35.397820	-2.634230	 0.000023	-3.783169	-0.089619	 3.526688	 0.823452	-0.025350	 89.782120	 78.203870	 180.000000	-12.512960	-5.961348	 1.072667	 4.635264	-0.427223	 0.526689	 21.177920	-19.116570	 8.763004	 6.437017	 35.671460	-0.771858	 2.830251	 35.756010	-7.813440	-2.350882	 35.473990	 5.254307
 0.012363	 0.078840	 1.205992	 91.228520	 4.058556	-0.969303	 9.587668	 17.815830	-176.277500	-5.869233	-11.624630	 1.534922	-13.333850	 89.103650	 16.781860	-2.283964	 41.192810	-0.308078	 4.365819	-45.808990	-179.994900	-0.414792	-42.653730	 3.475255	-176.631300	 84.107840	-178.829700	 2.395914	 25.375030	-0.063961	 4.949183	 2.835264	 2.625708	 9.084147	-4.705287	 1.832485	 11.539450	-8.711803	 0.917016	-91.776180	 78.527400	 180.000000	 42.118060	 62.159860	-57.391830	-6.508418	-4.588361	-27.093010	 3.195320	-20.036700	-5.707127	-3.812334	 37.924440	-2.927599	-2.450526	 36.184240	 0.754587	-1.378229	 35.397820	-2.634230	-0.226159	 4.949789	-2.324165	 3.314282	-23.676420	-0.721216	 89.782090	 78.203890	-180.000000	-30.593810	 73.089600	 34.275280	 3.902106	-6.513924	 19.859330	-11.193450	-21.026580	 10.211280	 6.437017	 35.671460	-0.771858	 2.830251	 35.756010	-7.813440	-2.350882	 35.473990	 5.254307
 0.031732	 0.079456	 1.205302	 91.672710	 4.138994	-1.132915	 9.313016	 18.587970	-176.330000	-5.609220	-11.624690	 1.534692	-7.691064	 88.889350	 11.136740	-2.269337	 42.335130	-0.340106	 4.624594	-45.629040	-179.536700	-0.072149	-42.171630	 3.765257	-176.097500	 84.855710	-179.004600	 2.384590	 28.404410	 0.000334	 4.844289	 2.688485	 2.606771	 8.966326	-4.824052	 1.774418	 11.463620	-8.781122	 0.875641	-91.776180	 78.527400	-180.000000	 42.837360	 62.384580	-58.139740	-6.325194	-4.584594	-26.202330	 3.429546	-20.072240	-5.705860	-3.812334	 37.924440	-2.927599	-2.450526	 36.184240	 0.754587	-1.378229	 35.397820	-2.634230	-0.309749	 5.091050	-2.301819	 3.254913	-23.896750	-0.711048	 89.782120	 78.203870	 180.000000	-30.179960	 73.276560	 33.547580	 3.836198	-6.455699	 19.494620	-11.315010	-21.058430	 10.209690	 6.437017	 35.671460	-0.771858	 2.830251	 35.756010	-7.813440	-2.350882	 35.473990	 5.254307
 0.054473	 0.079821	 1.205587	 92.080530	 4.235265	-1.262477	 9.047514	 19.482840	-176.482800	-5.287509	-11.623890	 1.540742	-2.559108	 88.496890	 6.039144	-2.250406	 43.696270	-0.379574	 4.887735	-45.364320	-179.133200	 0.240496	-42.096850	 4.082801	-175.482300	 85.697070	-179.299300	 2.376371	 30.102650	 0.037522	 4.737749	 2.518101	 2.533725	 8.853330	-4.968272	 1.704271	 11.411260	-8.833596	 0.832635	-91.776180	 78.527400	 180.000000	 43.579890	 62.782250	-58.800790	-6.210238	-4.568789	-25.151740	 3.700703	-20.125010	-5.704395	-3.812334	 37.924440	-2.927599	-2.450526	 36.184240	 0.754587	-1.378229	 35.397820	-2.634230	-0.400077	 5.199306	-2.290806	 3.187912	-24.015390	-0.679054	 89.782120	 78.203870	 180.000000	-29.532630	 73.550870	 32.605430	 3.864038	-6.401004	 19.121080	-11.456150	-21.106630	 10.207700	 6.437017	 35.671460	-0.771858	 2.830251	 35.756010	-7.813440	-2.350882	 35.473990	 5.254307
 0.074809	 0.079932	 1.204128	 92.409960	 4.334872	-1.351436	 8.852754	 20.266930	-176.681400	-4.986630	-11.622550	 1.551113	 0.603422	 87.968370	 2.940906	-2.229859	 45.047710	-0.420315	 5.106301	-45.027670	-178.824000	 0.535909	-42.350220	 4.412380	-175.567400	 86.424840	-178.955000	 2.376289	 30.116920	 0.037840	 4.639980	 2.338133	 2.447992	 8.756013	-5.101002	 1.633714	 11.365670	-8.869159	 0.794283	-91.776180	 78.527400	-180.000000	 44.174800	 63.225190	-59.266120	-6.185987	-4.546595	-24.234130	 3.936878	-20.181370	-5.702792	-3.812334	 37.924440	-2.927599	-2.450526	 36.184240	 0.754587	-1.378229	 35.397820	-2.634230	-0.477091	 5.181558	-2.264695	 3.133590	-23.997190	-0.628854	 89.782090	 78.203830	-180.000000	-28.959360	 73.796070	 31.792520	 3.907340	-6.360419	 18.830750	-11.573490	-21.157230	 10.206240	 6.437017	 35.671460	-0.771858	 2.830251	 35.756010	-7.813440	-2.350882	 35.473990	 5.254307
 0.098592	 0.079914	 1.202853	 92.748630	 4.453358	-1.438529	 8.662049	 21.163530	-176.961500	-4.621037	-11.620280	 1.568022	 2.838204	 87.110730	 0.818815	-2.200646	 46.784150	-0.475173	 5.304943	-44.551240	-178.517200	 1.064863	-42.911110	 4.937545	-175.386200	 87.402400	-178.747800	 2.380685	 29.247570	 0.018685	 4.523470	 2.124107	 2.320253	 8.652561	-5.261972	 1.559536	 11.338220	-8.913263	 0.751396	-91.776180	 78.527400	-180.000000	 44.735280	 63.848320	-59.554330	-6.239555	-4.513593	-23.201930	 4.205335	-20.257210	-5.700476	-3.812334	 37.924440	-2.927599	-2.450526	 36.184240	 0.754587	-1.378229	 35.397820	-2.634230	-0.562066	 5.088697	-2.223727	 3.076190	-23.884020	-0.549155	 89.782140	 78.203830	 180.000000	-28.272100	 74.075400	 30.834710	 3.975353	-6.318963	 18.534580	-11.694440	-21.223950	 10.205440	 6.437017	 35.671460	-0.771858	 2.830251	 35.756010	-7.813440	-2.350882	 35.473990	 5.254307
 0.123880	 0.079640	 1.202485	 93.051770	 4.517967	-1.489514	 8.510239	 22.086550	-177.334500	-4.216324	-11.617210	 1.591062	 4.121698	 85.874640	-0.299397	-2.164804	 48.677290	-0.538630	 5.276074	-43.995160	-178.465700	 2.224760	-43.702070	 5.841641	-174.569700	 88.721140	-178.871700	 2.380763	 29.232510	 0.018350	 4.398095	 1.900196	 2.109781	 8.561632	-5.444478	 1.496556	 11.351810	-8.982484	 0.714903	-91.776180	 78.527400	-180.000000	 45.125830	 64.628250	-59.491000	-6.384189	-4.473331	-22.169770	 4.480258	-20.347460	-5.697872	-3.812334	 37.924440	-2.927599	-2.450526	 36.184240	 0.754587	-1.378229	 35.397820	-2.634230	-0.647530	 4.963048	-2.169923	 3.018696	-23.705040	-0.453046	 89.782120	 78.203870	 180.000000	-27.499810	 74.356160	 29.769740	 4.064800	-6.278864	 18.264700	-11.798150	-21.302470	 10.205970	 6.437017	 35.671460	-0.771858	 2.830251	 35.756010	-7.813440	-2.350882	 35.473990	 5.254307
 0.151012	 0.079223	 1.202909	 93.287850	 4.484155	-1.459846	 8.447503	 23.042800	-177.834800	-3.773000	-11.612230	 1.627398	 4.812518	 84.133150	-0.726602	-2.122550	 50.644030	-0.609221	 4.892767	-43.399440	-178.718200	 4.118347	-44.654910	 7.140935	 7.348077	 89.489090	 0.170929	 2.374743	 30.407270	 0.044288	 4.294311	 1.665887	 1.768439	 8.511193	-5.635559	 1.426612	 11.383480	-9.079213	 0.713255	-91.776180	 78.527420	-180.000000	 45.321240	 65.569570	-59.073990	-6.632603	-4.428002	-21.151030	 4.762851	-20.453790	-5.695006	-3.812334	 37.924440	-2.927599	-2.450526	 36.184240	 0.754587	-1.378229	 35.397820	-2.634230	-0.739968	 4.853320	-2.101660	 2.950564	-23.502860	-0.338720	 89.782120	 78.203870	 180.000000	-26.598960	 74.631550	 28.532200	 4.177898	-6.237346	 18.020500	-11.875250	-21.394450	 10.208600	 6.437017	 35.671460	-0.771858	 2.830251	 35.756010	-7.813440	-2.350882	 35.473990	 5.254307
